<svg xmlns="http://www.w3.org/2000/svg" width="111.493" height="101.497" viewBox="0 0 104.52424 95.153381"><path d="M67.62 0l-25 14.615C-1.216 40.241-.616 39.762.216 48.29c.68 6.973 3.282 9.047 34.07 27.158C52.619 86.232 68.526 95.1 69.634 95.152c1.107.053 4.856-1.907 8.332-4.355 3.476-2.448 10.874-6.756 16.44-9.572 8.494-4.3 10.118-6.261 10.118-12.217 0-3.902-.615-7.094-1.369-7.094s-8.684 4.272-17.623 9.492l-16.252 9.49-12.896-7.705c-7.093-4.238-19.488-11.455-27.545-16.039-8.057-4.583-14.68-8.926-14.72-9.652-.038-.726 9.84-6.946 21.954-13.822C66.68 16.302 69.366 14.034 68.415 6.39L67.62 0zm11.617 21.438c-2.335 0-43.76 24.261-43.76 25.628 0 .675 1.875 2.651 4.166 4.391 5.55 4.213 7.09 4.092 14.514-1.137 3.476-2.448 10.874-6.755 16.44-9.572 8.494-4.3 10.119-6.26 10.119-12.217 0-3.902-.665-7.093-1.479-7.093zM91.43 40.654l-15.284 8.862C67.74 54.389 60.477 59.53 60.007 60.94c-.47 1.411 1.587 3.684 4.57 5.051 4.08 1.869 6.939 1.609 11.533-1.05 13.618-7.883 16.925-11.572 16.115-17.985l-.796-6.303z" fill="#6b8cbd"/></svg>